<svg width="29" height="28" viewBox="0 0 29 28" fill="none" xmlns="http://www.w3.org/2000/svg">
<g clip-path="url(#clip0_107_3782)">
<path d="M14.3402 2.33325C9.44017 2.33325 5.00684 6.08992 5.00684 11.8999C5.00684 15.7733 8.12184 20.3583 14.3402 25.6666C20.5585 20.3583 23.6735 15.7733 23.6735 11.8999C23.6735 6.08992 19.2402 2.33325 14.3402 2.33325ZM14.3402 22.5516C9.61517 18.2349 7.34017 14.6299 7.34017 11.8883C7.34017 7.66492 10.4318 4.66659 14.3402 4.66659C18.2485 4.66659 21.3402 7.66492 21.3402 11.8999C21.3402 14.6299 19.0652 18.2466 14.3402 22.5516Z" fill="#F759AB"/>
<path d="M15.5069 7H13.1736V12.8333H15.5069V7Z" fill="#F759AB"/>
<path d="M15.5069 15.1665H13.1736V17.4998H15.5069V15.1665Z" fill="#F759AB"/>
</g>
<defs>
<clipPath id="clip0_107_3782">
<rect width="28" height="28" fill="white" transform="translate(0.340088)"/>
</clipPath>
</defs>
</svg>
