<svg width="134" height="68" viewBox="0 0 134 68" fill="none" xmlns="http://www.w3.org/2000/svg">
<path d="M15.9781 0C15.9781 0 7.83924 9.41873 11.0216 22.5578C12.0641 26.877 14.3503 30.7787 17.24 34.1724C28.9636 47.8922 48.3321 58.5631 82.6066 64.2252C82.6066 64.2252 55.4285 69.2703 23.5499 52.3384C19.5628 50.2151 15.85 47.6381 12.5396 44.553C5.8274 38.2738 -0.299575 29.9802 0.0113459 19.0371C0.102793 15.2623 1.03556 11.5057 3.06569 8.31171C7.51003 1.30665 14.3869 0 15.9781 0Z" fill="#EC8922"/>
<path d="M27.3906 30.2161H134" stroke="#EE8621" stroke-width="4.78634"/>
<path d="M41.181 28.2561C33.2617 28.2561 29.3111 23.0658 29.3111 15.0808C29.3111 6.84165 33.4811 1.86914 41.6382 1.86914C44.784 1.86914 47.3263 2.63135 49.2649 4.21021C51.0756 5.82537 52.0998 8.03941 52.3742 10.8342H49.1918C48.0578 10.8342 47.2165 10.3079 46.7227 9.29161C45.8448 7.44053 44.1439 6.49684 41.6382 6.49684C36.7367 6.49684 34.5785 9.92678 34.5785 15.0808C34.5785 20.0896 36.6635 23.6284 41.4919 23.6284C44.784 23.6284 46.6861 21.8318 47.2531 19.0007H52.3742C51.8803 24.9169 47.7103 28.2561 41.181 28.2561Z" fill="white"/>
<path fill-rule="evenodd" clip-rule="evenodd" d="M60.1106 13.1572H55.0627C55.6662 9.47315 58.2816 7.67651 62.9089 7.67651C68.4506 7.67651 71.2672 9.47315 71.3769 13.1572V19.9445C71.3769 25.4433 68.0299 27.8932 62.6162 28.2562C57.7878 28.6373 54.4591 26.4232 54.4591 22.0133C54.5689 17.2223 58.0622 15.9519 63.1466 15.4619C65.3048 15.1897 66.4022 14.5545 66.4022 13.4657C66.2924 12.3405 65.2316 11.7779 63.1466 11.7779C61.3543 11.7779 60.3666 12.2316 60.1106 13.1572ZM66.4753 19.7085V17.8756C65.3048 18.3656 63.9331 18.783 62.4699 19.0734C60.4581 19.4545 59.4339 20.3982 59.4339 21.8681C59.5436 23.447 60.3666 24.1911 61.9761 24.1911C64.7744 24.1911 66.4753 22.5396 66.4753 19.7085Z" fill="white"/>
<path d="M92.1537 7.9668L85.0757 27.8931H79.7168L72.6571 7.9668H78.2354L82.2957 21.9406L85.7889 9.74528C86.173 8.56567 86.9961 7.9668 88.258 7.9668H92.1537Z" fill="white"/>
<path d="M96.6712 2.28662C98.3355 2.28662 99.1403 3.12142 99.1037 4.73658V6.20655H94.0558V2.28662H96.6712ZM96.6712 7.9669C98.2989 7.9669 99.1037 8.7654 99.1037 10.3806V27.8932H94.0558V7.9669H96.6712Z" fill="white"/>
<path d="M116.479 27.8932C114.814 27.7662 113.973 26.9858 113.973 25.407V15.1534C113.863 13.0846 112.711 12.0683 110.48 12.0683C108.249 12.0683 107.096 13.0846 107.06 15.1534V27.8932H101.939V16.1697C101.939 10.4894 104.828 7.67651 110.553 7.67651C116.278 7.67651 119.094 10.4894 119.058 16.1697V27.8932H116.479Z" fill="white"/>
<path d="M28.6526 35.9508C28.6526 35.352 28.9452 35.0435 29.5305 35.0435H30.4084V43.5729H28.6526V35.9508Z" fill="white"/>
<path d="M36.9926 35.0435H37.9437L41.4369 40.8871V35.0435H43.1744V43.5729H41.3455L37.8339 37.7112V43.5729H36.1147V35.9508C36.1147 35.4609 36.4988 35.0435 36.9926 35.0435Z" fill="white"/>
<path d="M53.0691 39.7982H50.6366V43.5729H48.8991V35.9508C48.8991 35.4609 49.3015 35.0435 49.7953 35.0435H55.1358V36.5134H50.6366V38.3464H54.0019V38.909C54.0019 39.3989 53.5629 39.7982 53.0691 39.7982Z" fill="white"/>
<path fill-rule="evenodd" clip-rule="evenodd" d="M60.6044 39.3084C60.6044 36.6951 62.1773 34.8984 64.7196 34.8984C67.2801 34.8984 68.853 36.7132 68.853 39.3084C68.853 41.9217 67.335 43.7001 64.7196 43.7001C62.1042 43.7001 60.6044 41.9035 60.6044 39.3084ZM62.3785 39.3084C62.3785 40.978 63.1101 42.2302 64.7196 42.2302C66.329 42.2302 67.0789 41.0143 67.0789 39.3084C67.0789 37.6206 66.329 36.4047 64.7196 36.4047C63.1101 36.4047 62.3785 37.6388 62.3785 39.3084Z" fill="white"/>
<path d="M75.0165 35.0435H80.9605V36.5497H78.4366V43.5729H76.6625V36.5497H74.1203V35.9508C74.1203 35.4609 74.5226 35.0435 75.0165 35.0435Z" fill="white"/>
<path d="M86.6302 35.9508C86.6302 35.3701 86.9229 35.0435 87.5081 35.0435H92.8487V36.5134H88.3677V38.3464H91.7147V38.909C91.733 39.5078 91.4221 39.7982 90.8002 39.7982H88.3677V41.9941H92.8487V43.5729H86.6302V35.9508Z" fill="white"/>
<path d="M102.396 43.7001C99.7622 43.7001 98.4453 41.9579 98.4453 39.3084C98.4453 36.5499 99.8353 34.8984 102.56 34.8984C103.603 34.8984 104.444 35.1525 105.084 35.6788C105.706 36.2051 106.035 36.9491 106.127 37.8747H105.066C104.682 37.8747 104.408 37.7114 104.243 37.3665C103.95 36.7495 103.383 36.441 102.56 36.441C100.914 36.441 100.201 37.5843 100.201 39.3084C100.201 40.978 100.896 42.1576 102.506 42.1576C103.603 42.1576 104.243 41.5405 104.426 40.5969H106.127C105.962 42.575 104.572 43.7001 102.396 43.7001Z" fill="white"/>
<path d="M112.675 35.0435H113.571V38.2193H117.101V35.0435H118.875V43.5729H117.101V39.7982H113.571V43.5729H111.778V35.9508C111.778 35.4609 112.181 35.0435 112.675 35.0435Z" fill="white"/>
<path d="M57.861 58.5632C57.861 63.7716 53.5996 68.0001 48.3322 68.0001C43.0831 68.0001 38.8217 63.7716 38.8217 58.5632C38.8217 53.3366 43.0831 49.1082 48.3322 49.1082C53.5996 49.1082 57.861 53.3366 57.861 58.5632Z" fill="white"/>
</svg>
