<svg width="256" height="256" viewBox="0 0 256 256" fill="none" xmlns="http://www.w3.org/2000/svg">
<g filter="url(#filter0_d_71_582)">
<rect x="100" y="96" width="56" height="56" rx="6" fill="#0D5E4F" fill-opacity="0.4" shape-rendering="crispEdges"/>
<g clip-path="url(#clip0_71_582)">
<path d="M139.55 120.372L138.325 115.273C138.068 114.223 137.158 113.5 136.097 113.5H119.892C118.842 113.5 117.92 114.235 117.675 115.273L116.45 120.372C116.17 121.562 116.427 122.775 117.173 123.732C117.267 123.86 117.395 123.953 117.5 124.07V132.167C117.5 133.45 118.55 134.5 119.833 134.5H136.167C137.45 134.5 138.5 133.45 138.5 132.167V124.07C138.605 123.965 138.733 123.86 138.827 123.743C139.573 122.787 139.842 121.562 139.55 120.372ZM136.062 115.822L137.287 120.92C137.403 121.41 137.298 121.9 136.995 122.285C136.832 122.495 136.482 122.833 135.898 122.833C135.187 122.833 134.568 122.262 134.487 121.503L133.81 115.833L136.062 115.822ZM129.167 115.833H131.453L132.083 121.107C132.142 121.562 132.002 122.017 131.698 122.355C131.442 122.658 131.068 122.833 130.59 122.833C129.808 122.833 129.167 122.145 129.167 121.305V115.833ZM123.905 121.107L124.547 115.833H126.833V121.305C126.833 122.145 126.192 122.833 125.328 122.833C124.932 122.833 124.57 122.658 124.29 122.355C123.998 122.017 123.858 121.562 123.905 121.107ZM118.713 120.92L119.892 115.833H122.19L121.513 121.503C121.42 122.262 120.813 122.833 120.102 122.833C119.53 122.833 119.168 122.495 119.017 122.285C118.702 121.912 118.597 121.41 118.713 120.92ZM119.833 132.167V125.132C119.927 125.143 120.008 125.167 120.102 125.167C121.117 125.167 122.038 124.747 122.715 124.058C123.415 124.758 124.348 125.167 125.41 125.167C126.425 125.167 127.335 124.747 128.012 124.082C128.7 124.747 129.633 125.167 130.683 125.167C131.663 125.167 132.597 124.758 133.297 124.058C133.973 124.747 134.895 125.167 135.91 125.167C136.003 125.167 136.085 125.143 136.178 125.132V132.167H119.833Z" fill="#36CFC9"/>
</g>
</g>
<defs>
<clipPath id="clip0_71_582">
<rect width="28" height="28" fill="white" transform="translate(114 110)"/>
</clipPath>
</defs>
</svg>
