<svg width="29" height="28" viewBox="0 0 29 28" fill="none" xmlns="http://www.w3.org/2000/svg">
<g clip-path="url(#clip0_107_3834)">
<path d="M14.5502 2.33325C8.09855 2.33325 2.88354 7.54825 2.88354 13.9999C2.88354 20.4516 8.09855 25.6666 14.5502 25.6666C21.0019 25.6666 26.2169 20.4516 26.2169 13.9999C26.2169 7.54825 21.0019 2.33325 14.5502 2.33325ZM14.5502 23.3333C9.40521 23.3333 5.21688 19.1449 5.21688 13.9999C5.21688 8.85492 9.40521 4.66659 14.5502 4.66659C19.6952 4.66659 23.8835 8.85492 23.8835 13.9999C23.8835 19.1449 19.6952 23.3333 14.5502 23.3333ZM18.7385 8.16659L14.5502 12.3549L10.3619 8.16659L8.71688 9.81159L12.9052 13.9999L8.71688 18.1883L10.3619 19.8333L14.5502 15.6449L18.7385 19.8333L20.3835 18.1883L16.1952 13.9999L20.3835 9.81159L18.7385 8.16659Z" fill="#FF4D4F"/>
</g>
<defs>
<clipPath id="clip0_107_3834">
<rect width="28" height="28" fill="white" transform="translate(0.550293)"/>
</clipPath>
</defs>
</svg>
