<svg width="16" height="17" viewBox="0 0 16 17" fill="none" xmlns="http://www.w3.org/2000/svg">
<path d="M13.4444 7.72222C13.4444 8.95286 13.0795 10.1559 12.3958 11.1791C11.7121 12.2023 10.7403 12.9999 9.60336 13.4708C8.4664 13.9417 7.21532 14.065 6.00833 13.8249C4.80134 13.5848 3.69264 12.9922 2.82245 12.122C1.95226 11.2518 1.35965 10.1431 1.11956 8.93612C0.879475 7.72912 1.0027 6.47804 1.47364 5.34108C1.94459 4.20412 2.7421 3.23234 3.76534 2.54863C4.78858 1.86493 5.99158 1.5 7.22222 1.5C8.87246 1.5 10.4551 2.15555 11.622 3.32245C12.7889 4.48934 13.4444 6.07199 13.4444 7.72222Z" stroke="white" stroke-opacity="0.75" stroke-width="2" stroke-linecap="round" stroke-linejoin="round"/>
<path d="M15 15.5L11.6167 12.1167" stroke="white" stroke-opacity="0.75" stroke-width="2" stroke-linecap="round" stroke-linejoin="round"/>
</svg>
