<svg width="29" height="28" viewBox="0 0 29 28" fill="none" xmlns="http://www.w3.org/2000/svg">
<g clip-path="url(#clip0_107_3820)">
<path d="M14.6801 2.33325C8.24009 2.33325 3.01343 7.55992 3.01343 13.9999C3.01343 20.4399 8.24009 25.6666 14.6801 25.6666C21.1201 25.6666 26.3468 20.4399 26.3468 13.9999C26.3468 7.55992 21.1201 2.33325 14.6801 2.33325ZM5.34676 13.9999C5.34676 8.84325 9.52343 4.66659 14.6801 4.66659C16.8384 4.66659 18.8218 5.40159 20.3968 6.63825L7.31843 19.7166C6.08176 18.1416 5.34676 16.1583 5.34676 13.9999ZM14.6801 23.3333C12.5218 23.3333 10.5384 22.5983 8.96343 21.3616L22.0418 8.28325C23.2784 9.85825 24.0134 11.8416 24.0134 13.9999C24.0134 19.1566 19.8368 23.3333 14.6801 23.3333Z" fill="#FFA940"/>
</g>
<defs>
<clipPath id="clip0_107_3820">
<rect width="28" height="28" fill="white" transform="translate(0.680176)"/>
</clipPath>
</defs>
</svg>
