<svg width="57" height="56" viewBox="0 0 57 56" fill="none" xmlns="http://www.w3.org/2000/svg">
<rect x="0.170044" width="56" height="56" rx="6" fill="#4096FF" fill-opacity="0.15"/>
<g clip-path="url(#clip0_71_599)">
<path d="M36.3367 30.3334V21.0001C36.3367 19.7167 35.2867 18.6667 34.0034 18.6667H17.6701C16.3867 18.6667 15.3367 19.7167 15.3367 21.0001V30.3334C15.3367 31.6167 16.3867 32.6667 17.6701 32.6667H34.0034C35.2867 32.6667 36.3367 31.6167 36.3367 30.3334ZM34.0034 30.3334H17.6701V21.0001H34.0034V30.3334ZM25.8367 22.1667C23.9001 22.1667 22.3367 23.7301 22.3367 25.6667C22.3367 27.6034 23.9001 29.1667 25.8367 29.1667C27.7734 29.1667 29.3367 27.6034 29.3367 25.6667C29.3367 23.7301 27.7734 22.1667 25.8367 22.1667ZM41.0034 22.1667V35.0001C41.0034 36.2834 39.9534 37.3334 38.6701 37.3334H18.8367V35.0001H38.6701V22.1667H41.0034Z" fill="#4096FF"/>
</g>
<defs>
<clipPath id="clip0_71_599">
<rect width="28" height="28" fill="white" transform="translate(14.17 14)"/>
</clipPath>
</defs>
</svg>
