<!-- <svg width="20" height="20" viewBox="0 0 20 20" fill="none" xmlns="http://www.w3.org/2000/svg">
<g id="user-01">
<path id="Icon" d="M16.6667 17.5C16.6667 16.337 16.6667 15.7555 16.5232 15.2824C16.2 14.217 15.3663 13.3834 14.301 13.0602C13.8278 12.9167 13.2463 12.9167 12.0834 12.9167H7.91671C6.75374 12.9167 6.17225 12.9167 5.69909 13.0602C4.63375 13.3834 3.80007 14.217 3.47691 15.2824C3.33337 15.7555 3.33337 16.337 3.33337 17.5M13.75 6.25C13.75 8.32107 12.0711 10 10 10C7.92897 10 6.25004 8.32107 6.25004 6.25C6.25004 4.17893 7.92897 2.5 10 2.5C12.0711 2.5 13.75 4.17893 13.75 6.25Z" stroke="#475467" stroke-width="1.66667" stroke-linecap="round" stroke-linejoin="round"/>
</g>
</svg>   -->

<svg width="34" height="34" viewBox="0 0 34 34" fill="none" xmlns="http://www.w3.org/2000/svg">
<rect width="32" height="32" rx="16" fill="#F2F4F7"/>
<g opacity="0.08">
<rect x="0.25" y="0.25" width="31.5" height="31.5" rx="15.75" stroke="black" stroke-width="0.5"/>
</g>
<path d="M22.6673 23.5C22.6673 22.337 22.6673 21.7555 22.5238 21.2824C22.2006 20.217 21.3669 19.3834 20.3016 19.0602C19.8284 18.9167 19.247 18.9167 18.084 18.9167H13.9173C12.7543 18.9167 12.1729 18.9167 11.6997 19.0602C10.6344 19.3834 9.80068 20.217 9.47752 21.2824C9.33398 21.7555 9.33398 22.337 9.33398 23.5M19.7507 12.25C19.7507 14.3211 18.0717 16 16.0007 16C13.9296 16 12.2507 14.3211 12.2507 12.25C12.2507 10.1789 13.9296 8.5 16.0007 8.5C18.0717 8.5 19.7507 10.1789 19.7507 12.25Z" stroke="#475467" stroke-width="1.66667" stroke-linecap="round" stroke-linejoin="round"/>
<rect x="23.25" y="23.25" width="9.5" height="9.5" rx="4.75" fill="#17B26A"/>
<rect x="23.25" y="23.25" width="9.5" height="9.5" rx="4.75" stroke="white" stroke-width="1.5"/>
</svg>
