<svg width="24" height="24" viewBox="0 0 24 24" fill="none" xmlns="http://www.w3.org/2000/svg">
<mask id="mask0_5015_87625" style="mask-type:alpha" maskUnits="userSpaceOnUse" x="0" y="0" width="24" height="24">
<rect width="24" height="24" fill="#D9D9D9"/>
</mask>
<g mask="url(#mask0_5015_87625)">
<path d="M6.75 21.9998C6 21.9998 5.35417 21.7456 4.8125 21.2373C4.27083 20.729 4 20.0998 4 19.3498V5.3998C4 4.76647 4.19583 4.1998 4.5875 3.6998C4.97917 3.1998 5.49167 2.88314 6.125 2.7498L16 0.799805V16.7998L6.525 18.6998C6.375 18.7331 6.25 18.8123 6.15 18.9373C6.05 19.0623 6 19.1998 6 19.3498C6 19.5331 6.075 19.6873 6.225 19.8123C6.375 19.9373 6.55 19.9998 6.75 19.9998H18V3.9998H20V21.9998H6.75ZM9 16.1748L14 15.1998V3.2498L9 4.2248V16.1748ZM7 16.5748V4.6248L6.625 4.6998C6.44167 4.73314 6.29167 4.8123 6.175 4.9373C6.05833 5.0623 6 5.21647 6 5.3998V16.8248C6.08333 16.7915 6.17083 16.7623 6.2625 16.7373C6.35417 16.7123 6.44167 16.6915 6.525 16.6748L7 16.5748Z" fill="#FBFBFF"/>
</g>
</svg>
