<svg width="34" height="34" viewBox="0 0 34 34" fill="none" xmlns="http://www.w3.org/2000/svg">
<mask id="mask0_2837_98898" style="mask-type:alpha" maskUnits="userSpaceOnUse" x="0" y="0" width="34" height="34">
<rect x="15.4268" y="33.9062" width="24" height="24" transform="rotate(-130 15.4268 33.9062)" fill="#D9D9D9"/>
</mask>
<g mask="url(#mask0_2837_98898)">
<path d="M15.9221 9.99334C17.2499 8.87917 18.7708 8.39707 20.4849 8.54703C22.199 8.697 23.6131 9.43588 24.7273 10.7637C25.8415 12.0915 26.3236 13.6124 26.1736 15.3265C26.0236 17.0406 25.2848 18.4547 23.9569 19.5689L16.871 25.5147C15.9135 26.3182 14.8183 26.666 13.5856 26.5581C12.3529 26.4503 11.3348 25.9176 10.5313 24.96C9.7278 24.0025 9.37998 22.9073 9.48783 21.6746C9.59568 20.4419 10.1284 19.4238 11.0859 18.6203L17.7888 12.9959C18.3761 12.5031 19.0455 12.2896 19.7968 12.3553C20.5482 12.421 21.1703 12.7475 21.6631 13.3348C22.1559 13.9221 22.3695 14.5915 22.3037 15.3429C22.238 16.0942 21.9115 16.7163 21.3242 17.2091L14.2382 23.1549L12.9527 21.6228L20.0386 15.677C20.2046 15.5378 20.2963 15.3683 20.3137 15.1688C20.3312 14.9692 20.2703 14.7864 20.131 14.6204C19.9918 14.4544 19.8223 14.3627 19.6227 14.3453C19.4232 14.3278 19.2404 14.3887 19.0744 14.528L12.3715 20.1524C11.846 20.6151 11.5508 21.1837 11.4858 21.8583C11.4209 22.5328 11.6134 23.1382 12.0634 23.6745C12.5133 24.2107 13.0788 24.5086 13.7597 24.5682C14.4406 24.6277 15.0492 24.4325 15.5855 23.9826L22.6714 18.0368C23.5886 17.2889 24.0953 16.3307 24.1917 15.162C24.288 13.9933 23.9558 12.9558 23.1952 12.0493C22.4453 11.1556 21.4919 10.661 20.3349 10.5657C19.178 10.4704 18.1356 10.7903 17.2077 11.5254L9.73874 17.7926L8.45316 16.2605L15.9221 9.99334Z" fill="#1C1B1F"/>
</g>
</svg>
