<svg xmlns="http://www.w3.org/2000/svg" width="34" height="32" viewBox="0 0 34 32" fill="none">
  <path fill-rule="evenodd" clip-rule="evenodd" d="M15.9992 2.66602C11.5809 2.66602 7.99922 6.24773 7.99922 10.666V13.3327C7.99922 15.3521 7.34423 17.3171 6.13256 18.9327L5.84684 19.3136L5.8277 19.3391L5.82767 19.3392C5.74931 19.4436 5.68561 19.5285 5.64276 19.5962C4.83728 20.8684 5.67349 22.5408 7.17456 22.6598C7.25441 22.6661 7.36053 22.6661 7.49107 22.666H7.49116L7.52303 22.666H24.4754L24.5073 22.666H24.5074C24.6379 22.6661 24.744 22.6661 24.8239 22.6598C26.325 22.5408 27.1612 20.8684 26.3557 19.5962C26.3128 19.5285 26.2492 19.4436 26.1708 19.3392L26.1707 19.3391L26.1516 19.3136L25.8659 18.9327C24.6542 17.3171 23.9992 15.3521 23.9992 13.3327V12.422C23.9992 12.203 23.9992 12.0935 23.9368 12.0343C23.8744 11.9751 23.7543 11.9816 23.5142 11.9945C23.4541 11.9977 23.3935 11.9993 23.3326 11.9993C23.2716 11.9993 23.211 11.9977 23.1509 11.9945C22.9108 11.9816 22.7907 11.9751 22.7283 12.0343C22.6659 12.0935 22.6659 12.203 22.6659 12.422V13.3327C22.6659 15.6406 23.4145 17.8863 24.7992 19.7327L25.0849 20.1136C25.1345 20.1797 25.1684 20.2249 25.1935 20.2592C25.2058 20.276 25.2144 20.288 25.2206 20.2968L25.2272 20.3064C25.2286 20.3086 25.2292 20.3095 25.2292 20.3094C25.4976 20.7335 25.2189 21.2909 24.7186 21.3306C24.7186 21.3306 24.7183 21.3306 24.7175 21.3307C24.717 21.3307 24.7161 21.3308 24.715 21.3308L24.7033 21.3313C24.6926 21.3317 24.6778 21.332 24.657 21.3322C24.6145 21.3327 24.558 21.3327 24.4754 21.3327H7.52303C7.4404 21.3327 7.38396 21.3327 7.34141 21.3322C7.32065 21.332 7.30588 21.3317 7.2951 21.3313L7.28347 21.3308C7.28232 21.3308 7.28147 21.3307 7.28088 21.3307C7.28014 21.3306 7.27983 21.3306 7.27989 21.3306C6.77953 21.2909 6.5008 20.7335 6.76929 20.3094L6.76931 20.3094L6.77127 20.3064L6.77786 20.2968C6.78404 20.288 6.79264 20.276 6.80492 20.2592C6.83007 20.2249 6.86393 20.1797 6.91351 20.1136L7.19922 19.7327C8.58399 17.8863 9.33256 15.6406 9.33256 13.3327V10.666C9.33256 6.98411 12.3173 3.99935 15.9992 3.99935C17.8467 3.99935 19.5187 4.75087 20.7261 5.96488C20.8654 6.10486 20.935 6.17485 21.0096 6.18023C21.0843 6.18561 21.167 6.12346 21.3325 5.99916C21.4322 5.92428 21.5362 5.85487 21.6441 5.79135C21.8802 5.65238 21.9982 5.5829 22.0115 5.48702C22.0247 5.39113 21.9416 5.30441 21.7753 5.13098C20.3192 3.61184 18.2697 2.66602 15.9992 2.66602Z" fill="#28292D"/>
  <g filter="url(#filter0_d_359_1939)">
    <circle cx="24" cy="9" r="5" fill="#EC174F"/>
    <circle cx="24" cy="9" r="5.5" stroke="white"/>
  </g>
  <path d="M12.7809 24.8614C12.9708 25.5702 13.3893 26.1965 13.9714 26.6432C14.5536 27.0899 15.2669 27.332 16.0007 27.332C16.7344 27.332 17.4477 27.0899 18.0299 26.6432C18.612 26.1965 19.0305 25.5702 19.2204 24.8614" stroke="#28292D" stroke-width="1.33333" stroke-linecap="round"/>
  <defs>
    <filter id="filter0_d_359_1939" x="14" y="3" width="20" height="20" filterUnits="userSpaceOnUse" color-interpolation-filters="sRGB">
      <feFlood flood-opacity="0" result="BackgroundImageFix"/>
      <feColorMatrix in="SourceAlpha" type="matrix" values="0 0 0 0 0 0 0 0 0 0 0 0 0 0 0 0 0 0 127 0" result="hardAlpha"/>
      <feOffset dy="4"/>
      <feGaussianBlur stdDeviation="2"/>
      <feComposite in2="hardAlpha" operator="out"/>
      <feColorMatrix type="matrix" values="0 0 0 0 0 0 0 0 0 0 0 0 0 0 0 0 0 0 0.25 0"/>
      <feBlend mode="normal" in2="BackgroundImageFix" result="effect1_dropShadow_359_1939"/>
      <feBlend mode="normal" in="SourceGraphic" in2="effect1_dropShadow_359_1939" result="shape"/>
    </filter>
  </defs>
</svg>