<svg width="25" height="23" viewBox="0 0 25 23" fill="none" xmlns="http://www.w3.org/2000/svg">
<path d="M18.5 7H19C19.5523 7 20 6.55228 20 6V5.5C20 4.94772 19.5523 4.5 19 4.5H16M18.5 7V19C18.5 20.1046 17.6046 21 16.5 21H8.5C7.39543 21 6.5 20.1046 6.5 19V7M18.5 7H6.5M16 4.5V4C16 2.89543 15.1046 2 14 2H11C9.89543 2 9 2.89543 9 4V4.5M16 4.5H9M6.5 7H6C5.44772 7 5 6.55228 5 6V5.5C5 4.94772 5.44772 4.5 6 4.5H9M10.5 10.5V17.5M14.5 10.5V17.5" stroke="#F5222D" stroke-width="1.25" stroke-linecap="round"/>
</svg>
