<svg width="28" height="28" viewBox="0 0 28 28" fill="none" xmlns="http://www.w3.org/2000/svg">
<g clip-path="url(#clip0_71_583)">
<path d="M25.55 10.3717L24.325 5.27333C24.0683 4.22333 23.1583 3.5 22.0967 3.5H5.89167C4.84167 3.5 3.92001 4.235 3.67501 5.27333L2.45001 10.3717C2.17001 11.5617 2.42667 12.775 3.17334 13.7317C3.26667 13.86 3.39501 13.9533 3.50001 14.07V22.1667C3.50001 23.45 4.55001 24.5 5.83334 24.5H22.1667C23.45 24.5 24.5 23.45 24.5 22.1667V14.07C24.605 13.965 24.7333 13.86 24.8267 13.7433C25.5733 12.7867 25.8417 11.5617 25.55 10.3717ZM22.0617 5.82167L23.2867 10.92C23.4033 11.41 23.2983 11.9 22.995 12.285C22.8317 12.495 22.4817 12.8333 21.8983 12.8333C21.1867 12.8333 20.5683 12.2617 20.4867 11.5033L19.81 5.83333L22.0617 5.82167ZM15.1667 5.83333H17.4533L18.0833 11.1067C18.1417 11.5617 18.0017 12.0167 17.6983 12.355C17.4417 12.6583 17.0683 12.8333 16.59 12.8333C15.8083 12.8333 15.1667 12.145 15.1667 11.305V5.83333ZM9.90501 11.1067L10.5467 5.83333H12.8333V11.305C12.8333 12.145 12.1917 12.8333 11.3283 12.8333C10.9317 12.8333 10.57 12.6583 10.29 12.355C9.99834 12.0167 9.85834 11.5617 9.90501 11.1067ZM4.71334 10.92L5.89167 5.83333H8.19001L7.51334 11.5033C7.42001 12.2617 6.81334 12.8333 6.10167 12.8333C5.53001 12.8333 5.16834 12.495 5.01667 12.285C4.70167 11.9117 4.59667 11.41 4.71334 10.92ZM5.83334 22.1667V15.1317C5.92667 15.1433 6.00834 15.1667 6.10167 15.1667C7.11667 15.1667 8.03834 14.7467 8.71501 14.0583C9.41501 14.7583 10.3483 15.1667 11.41 15.1667C12.425 15.1667 13.335 14.7467 14.0117 14.0817C14.7 14.7467 15.6333 15.1667 16.6833 15.1667C17.6633 15.1667 18.5967 14.7583 19.2967 14.0583C19.9733 14.7467 20.895 15.1667 21.91 15.1667C22.0033 15.1667 22.085 15.1433 22.1783 15.1317V22.1667H5.83334Z" fill="#36CFC9"/>
</g>
<defs>
<clipPath id="clip0_71_583">
<rect width="28" height="28" fill="white"/>
</clipPath>
</defs>
</svg>
