<svg width="16" height="14" viewBox="0 0 16 14" fill="none" xmlns="http://www.w3.org/2000/svg">
<path d="M13.9668 -6.58035e-05L2.00524 -6.58035e-05C1.79351 -2.00272e-05 1.58655 0.0627985 1.41052 0.180449C1.23449 0.298099 1.0973 0.465298 1.01628 0.66091C0.935263 0.856521 0.91406 1.07176 0.955353 1.27942C0.996646 1.48708 1.09858 1.67784 1.24827 1.82757L7.22905 7.80835C7.42983 8.00907 7.70211 8.12183 7.98601 8.12183C8.26992 8.12183 8.5422 8.00907 8.74298 7.80835L14.7238 1.82757C14.8734 1.67784 14.9754 1.48708 15.0167 1.27942C15.058 1.07176 15.0368 0.856521 14.9557 0.66091C14.8747 0.465298 14.7375 0.298099 14.5615 0.180449C14.3855 0.0627985 14.1785 -2.00272e-05 13.9668 -6.58035e-05Z" fill="#A8071A"/>
<path d="M1.58689 5.37816C1.7278 5.37734 1.86748 5.40435 1.99793 5.45763C2.12838 5.51091 2.24702 5.58942 2.34707 5.68865L7.25075 10.603C7.35028 10.7034 7.4687 10.783 7.59917 10.8374C7.72964 10.8918 7.86958 10.9197 8.01092 10.9197C8.15226 10.9197 8.29221 10.8918 8.42268 10.8374C8.55315 10.783 8.67157 10.7034 8.7711 10.603L13.6748 5.68865C13.8764 5.48704 14.1498 5.37378 14.435 5.37378C14.7201 5.37378 14.9935 5.48704 15.1951 5.68865C15.3967 5.89026 15.51 6.16371 15.51 6.44883C15.51 6.59001 15.4822 6.7298 15.4282 6.86023C15.3741 6.99066 15.295 7.10918 15.1951 7.209L10.2807 12.1127C9.67053 12.6989 8.85714 13.0264 8.01092 13.0264C7.16471 13.0264 6.35132 12.6989 5.7411 12.1127L0.826714 7.209C0.726361 7.10947 0.646708 6.99105 0.592351 6.86058C0.537994 6.73011 0.51001 6.59017 0.51001 6.44883C0.51001 6.30749 0.537994 6.16754 0.592351 6.03707C0.646708 5.9066 0.726361 5.78818 0.826714 5.68865C0.926757 5.58942 1.0454 5.51091 1.17585 5.45763C1.3063 5.40435 1.44598 5.37734 1.58689 5.37816Z" fill="#F5222D"/>
</svg>
