<svg xmlns="http://www.w3.org/2000/svg" width="24" height="24" viewBox="0 0 24 24" fill="none">
  <path d="M20.4908 11.1432C20.8361 11.6696 20.8361 12.3304 20.4908 12.8568C19.4032 14.5146 16.5729 18 11.9999 18C7.4269 18 4.5966 14.5146 3.50898 12.8568C3.16367 12.3304 3.16367 11.6696 3.50898 11.1432C4.5966 9.48535 7.4269 6 11.9999 6C16.5729 6 19.4032 9.48535 20.4908 11.1432Z" stroke="currentColor" stroke-width="1.25" stroke-linecap="round"/>
  <path d="M14.9999 12C14.9999 13.6569 13.6567 15 11.9999 15C10.343 15 8.99988 13.6569 8.99988 12C8.99988 10.3431 10.343 9 11.9999 9C13.6567 9 14.9999 10.3431 14.9999 12Z" stroke="currentColor" stroke-width="1.25" stroke-linecap="round"/>
</svg>