<svg width="15" height="14" viewBox="0 0 15 14" fill="none" xmlns="http://www.w3.org/2000/svg">
<path d="M1.54322 13.0264H13.5048C13.7165 13.0264 13.9235 12.9636 14.0995 12.8459C14.2755 12.7283 14.4127 12.5611 14.4937 12.3655C14.5747 12.1698 14.596 11.9546 14.5547 11.7469C14.5134 11.5393 14.4114 11.3485 14.2617 11.1988L8.28096 5.21802C8.08018 5.0173 7.8079 4.90454 7.524 4.90454C7.24009 4.90454 6.96781 5.0173 6.76703 5.21802L0.786257 11.1988C0.636567 11.3485 0.534632 11.5393 0.493339 11.7469C0.452046 11.9546 0.473248 12.1698 0.554266 12.3655C0.635284 12.5611 0.772479 12.7283 0.948509 12.8459C1.12454 12.9636 1.3315 13.0264 1.54322 13.0264Z" fill="#237804"/>
<path d="M13.9231 7.64821C13.7822 7.64903 13.6425 7.62202 13.5121 7.56874C13.3816 7.51546 13.263 7.43695 13.1629 7.33772L8.25926 2.42333C8.15973 2.32298 8.04131 2.24333 7.91084 2.18897C7.78037 2.13461 7.64043 2.10663 7.49909 2.10663C7.35775 2.10663 7.2178 2.13461 7.08733 2.18897C6.95686 2.24333 6.83844 2.32298 6.73891 2.42333L1.83523 7.33772C1.63362 7.53933 1.36018 7.65259 1.07505 7.65259C0.789931 7.65259 0.516487 7.53933 0.314876 7.33772C0.113264 7.13611 0 6.86266 0 6.57754C0 6.43636 0.0278074 6.29657 0.0818339 6.16613C0.13586 6.0357 0.215048 5.91719 0.314876 5.81736L5.22926 0.913683C5.83948 0.327419 6.65287 0 7.49909 0C8.3453 0 9.15869 0.327419 9.76891 0.913683L14.6833 5.81736C14.7836 5.9169 14.8633 6.03531 14.9177 6.16578C14.972 6.29626 15 6.4362 15 6.57754C15 6.71888 14.972 6.85882 14.9177 6.9893C14.8633 7.11977 14.7836 7.23818 14.6833 7.33772C14.5833 7.43695 14.4646 7.51546 14.3342 7.56874C14.2037 7.62202 14.064 7.64903 13.9231 7.64821Z" fill="#73D13D"/>
</svg>
