<svg width="44" height="44" viewBox="0 0 44 44" fill="none" xmlns="http://www.w3.org/2000/svg">
<path d="M22 2C18.0444 2 14.1776 3.17298 10.8886 5.37061C7.59962 7.56823 5.03617 10.6918 3.52242 14.3463C2.00867 18.0008 1.6126 22.0222 2.3843 25.9018C3.15601 29.7814 5.06082 33.3451 7.85787 36.1421C10.6549 38.9392 14.2186 40.844 18.0982 41.6157C21.9778 42.3874 25.9992 41.9913 29.6537 40.4776C33.3082 38.9638 36.4318 36.4004 38.6294 33.1114C40.827 29.8224 42 25.9556 42 22C42 16.6957 39.8929 11.6086 36.1421 7.85786C32.3914 4.10714 27.3043 2 22 2ZM23.8667 9.22C25.8133 9.22 26.3867 10.3533 26.3867 11.6467C26.3867 13.26 25.0933 14.7533 22.8867 14.7533C21.04 14.7533 20.16 13.8267 20.22 12.2933C20.22 11 21.3333 9.22 23.8667 9.22ZM18.8733 34C17.54 34 16.5667 33.1867 17.5 29.64L19.0267 23.3333C19.2933 22.3267 19.3333 21.92 19.0267 21.92C17.9069 22.1975 16.8427 22.6642 15.88 23.3L15.2133 22.2133C18.4533 19.5067 22.18 17.92 23.7733 17.92C25.1067 17.92 25.3267 19.4933 24.66 21.92L22.9133 28.5467C22.6 29.72 22.7333 30.12 23.0467 30.12C24.1529 29.8746 25.1813 29.3593 26.04 28.62L26.7933 29.6333C23.64 32.7667 20.2 34 18.8733 34Z" fill="#CF1322"/>
</svg>
