<svg width="29" height="28" viewBox="0 0 29 28" fill="none" xmlns="http://www.w3.org/2000/svg">
<g clip-path="url(#clip0_107_3801)">
<path d="M21.5101 12.8333C21.5101 12.915 21.5101 12.985 21.5101 13.0667C21.5101 15.7967 19.2351 19.4133 14.5101 23.73C9.78509 19.4133 7.51009 15.8083 7.51009 13.0667C7.51009 8.83167 10.6018 5.83333 14.5101 5.83333C14.9068 5.83333 15.3034 5.86833 15.6768 5.92667V3.57C15.2918 3.52333 14.9068 3.5 14.5101 3.5C9.61009 3.5 5.17676 7.25667 5.17676 13.0667C5.17676 16.94 8.29176 21.525 14.5101 26.8333C20.7284 21.525 23.8434 16.94 23.8434 13.0667C23.8434 12.985 23.8434 12.915 23.8434 12.8333H21.5101Z" fill="#9254DE"/>
<path d="M14.5101 15.1667C15.7988 15.1667 16.8434 14.122 16.8434 12.8333C16.8434 11.5447 15.7988 10.5 14.5101 10.5C13.2214 10.5 12.1768 11.5447 12.1768 12.8333C12.1768 14.122 13.2214 15.1667 14.5101 15.1667Z" fill="#9254DE"/>
<path d="M26.8069 3.36004L25.1502 1.70337L22.6769 4.18837L20.2035 1.70337L18.5469 3.36004L21.0319 5.83337L18.5469 8.3067L20.2035 9.96337L22.6769 7.47837L25.1502 9.96337L26.8069 8.3067L24.3219 5.83337L26.8069 3.36004Z" fill="#9254DE"/>
</g>
<defs>
<clipPath id="clip0_107_3801">
<rect width="28" height="28" fill="white" transform="translate(0.51001)"/>
</clipPath>
</defs>
</svg>
