<svg width="97" height="49" viewBox="0 0 97 49" fill="none" xmlns="http://www.w3.org/2000/svg">
<path d="M11.5662 0C11.5662 0 5.67468 6.78703 7.97833 16.2549C8.73298 19.3672 10.3879 22.1788 12.4797 24.6242C20.9662 34.5105 34.9867 42.1999 59.7973 46.2799C59.7973 46.2799 40.1236 49.9154 17.0473 37.7144C14.1611 36.1844 11.4735 34.3275 9.0772 32.1043C4.21834 27.5797 -0.216857 21.6034 0.00821305 13.7179C0.07441 10.9979 0.749619 8.2909 2.21919 5.98932C5.43637 0.941554 10.4144 0 11.5662 0Z" fill="#EC8922"/>
<path d="M19.8275 21.7734H97" stroke="#EE8621" stroke-width="4.78634"/>
<path d="M29.8101 20.3611C24.0775 20.3611 21.2177 16.621 21.2177 10.8671C21.2177 4.93005 24.2363 1.34692 30.1411 1.34692C32.4183 1.34692 34.2585 1.89616 35.6619 3.03387C36.9726 4.19774 37.714 5.79315 37.9126 7.80702H35.609C34.7881 7.80702 34.1791 7.42779 33.8217 6.69547C33.1862 5.3616 31.9549 4.68159 30.1411 4.68159C26.5929 4.68159 25.0307 7.15317 25.0307 10.8671C25.0307 14.4764 26.54 17.0264 30.0352 17.0264C32.4183 17.0264 33.7952 15.7318 34.2056 13.6917H37.9126C37.5552 17.9549 34.5366 20.3611 29.8101 20.3611Z" fill="white"/>
<path fill-rule="evenodd" clip-rule="evenodd" d="M43.5129 9.48103H39.8588C40.2957 6.82638 42.1889 5.53174 45.5385 5.53174C49.55 5.53174 51.5889 6.82638 51.6683 9.48103V14.3719C51.6683 18.3342 49.2455 20.0997 45.3267 20.3612C41.8315 20.6358 39.4219 19.0404 39.4219 15.8627C39.5013 12.4103 42.0301 11.4949 45.7106 11.1418C47.2729 10.9457 48.0672 10.488 48.0672 9.70334C47.9878 8.89256 47.2199 8.48717 45.7106 8.48717C44.4132 8.48717 43.6982 8.8141 43.5129 9.48103ZM48.1202 14.2019V12.8811C47.2729 13.2342 46.2799 13.5349 45.2208 13.7442C43.7644 14.0188 43.023 14.6988 43.023 15.7581C43.1025 16.8958 43.6982 17.4319 44.8633 17.4319C46.8889 17.4319 48.1202 16.2419 48.1202 14.2019Z" fill="white"/>
<path d="M66.7083 5.74097L61.5846 20.0996H57.7055L52.5951 5.74097H56.6331L59.5722 15.8104L62.1009 7.02252C62.379 6.17251 62.9747 5.74097 63.8883 5.74097H66.7083Z" fill="white"/>
<path d="M69.9784 1.64771C71.1832 1.64771 71.7657 2.24925 71.7392 3.41312V4.47236H68.0852V1.64771H69.9784ZM69.9784 5.74085C71.1567 5.74085 71.7392 6.31624 71.7392 7.4801V20.0995H68.0852V5.74085H69.9784Z" fill="white"/>
<path d="M84.3167 20.0997C83.1119 20.0081 82.5029 19.4458 82.5029 18.3081V10.9195C82.4235 9.42872 81.5894 8.6964 79.9742 8.6964C78.359 8.6964 77.5249 9.42872 77.4984 10.9195V20.0997H73.7914V11.6518C73.7914 7.55869 75.8832 5.53174 80.0272 5.53174C84.1711 5.53174 86.21 7.55869 86.1835 11.6518V20.0997H84.3167Z" fill="white"/>
<path d="M20.7411 25.9058C20.7411 25.4743 20.9529 25.252 21.3765 25.252H22.012V31.3982H20.7411V25.9058Z" fill="white"/>
<path d="M26.7783 25.252H27.4667L29.9954 29.4628V25.252H31.2532V31.3982H29.9292L27.3873 27.1743V31.3982H26.1428V25.9058C26.1428 25.5527 26.4208 25.252 26.7783 25.252Z" fill="white"/>
<path d="M38.4157 28.6782H36.6548V31.3982H35.3971V25.9058C35.3971 25.5527 35.6884 25.252 36.0458 25.252H39.9117V26.3112H36.6548V27.632H39.0909V28.0374C39.0909 28.3905 38.7731 28.6782 38.4157 28.6782Z" fill="white"/>
<path fill-rule="evenodd" clip-rule="evenodd" d="M43.8704 28.325C43.8704 26.4419 45.0089 25.1472 46.8492 25.1472C48.7027 25.1472 49.8413 26.4549 49.8413 28.325C49.8413 30.2081 48.7425 31.4896 46.8492 31.4896C44.956 31.4896 43.8704 30.195 43.8704 28.325ZM45.1546 28.325C45.1546 29.5281 45.6842 30.4304 46.8492 30.4304C48.0143 30.4304 48.5571 29.5542 48.5571 28.325C48.5571 27.1088 48.0143 26.2326 46.8492 26.2326C45.6842 26.2326 45.1546 27.1219 45.1546 28.325Z" fill="white"/>
<path d="M54.303 25.252H58.6058V26.3374H56.7787V31.3982H55.4945V26.3374H53.6542V25.9058C53.6542 25.5527 53.9455 25.252 54.303 25.252Z" fill="white"/>
<path d="M62.71 25.9058C62.71 25.4873 62.9218 25.252 63.3455 25.252H67.2114V26.3112H63.9677V27.632H66.3905V28.0374C66.4038 28.4689 66.1787 28.6782 65.7285 28.6782H63.9677V30.2605H67.2114V31.3982H62.71V25.9058Z" fill="white"/>
<path d="M74.1224 31.4896C72.2159 31.4896 71.2627 30.2342 71.2627 28.325C71.2627 26.3372 72.2689 25.1472 74.2415 25.1472C74.9962 25.1472 75.6052 25.3303 76.0686 25.7095C76.5187 26.0888 76.757 26.6249 76.8232 27.2919H76.0553C75.7773 27.2919 75.5787 27.1742 75.4596 26.9257C75.2477 26.4811 74.8373 26.2588 74.2415 26.2588C73.05 26.2588 72.5336 27.0826 72.5336 28.325C72.5336 29.5281 73.0367 30.3781 74.2018 30.3781C74.9962 30.3781 75.4596 29.9334 75.5919 29.2534H76.8232C76.7041 30.6788 75.6979 31.4896 74.1224 31.4896Z" fill="white"/>
<path d="M81.5629 25.252H82.2116V27.5405H84.7668V25.252H86.0511V31.3982H84.7668V28.6782H82.2116V31.3982H80.9142V25.9058C80.9142 25.5527 81.2054 25.252 81.5629 25.252Z" fill="white"/>
<path d="M41.8845 42.1999C41.8845 45.953 38.7997 49 34.9868 49C31.187 49 28.1023 45.953 28.1023 42.1999C28.1023 38.4337 31.187 35.3867 34.9868 35.3867C38.7997 35.3867 41.8845 38.4337 41.8845 42.1999Z" fill="white"/>
</svg>
