<svg width="231" height="38" viewBox="0 0 231 38" fill="none" xmlns="http://www.w3.org/2000/svg">
<g opacity="0.3">
<rect x="6.5" y="6" width="26" height="26" rx="13" stroke="#D92D20" stroke-width="2"/>
</g>
<g opacity="0.1">
<rect x="1.5" y="1" width="36" height="36" rx="18" stroke="#D92D20" stroke-width="2"/>
</g>
<path d="M22.8333 14.0013V13.3346C22.8333 12.4012 22.8333 11.9345 22.6517 11.578C22.4919 11.2644 22.2369 11.0094 21.9233 10.8496C21.5668 10.668 21.1001 10.668 20.1667 10.668H18.8333C17.8999 10.668 17.4332 10.668 17.0767 10.8496C16.7631 11.0094 16.5081 11.2644 16.3483 11.578C16.1667 11.9345 16.1667 12.4012 16.1667 13.3346V14.0013M17.8333 18.5846V22.7513M21.1667 18.5846V22.7513M12 14.0013H27M25.3333 14.0013V23.3346C25.3333 24.7348 25.3333 25.4348 25.0608 25.9696C24.8212 26.44 24.4387 26.8225 23.9683 27.0622C23.4335 27.3346 22.7335 27.3346 21.3333 27.3346H17.6667C16.2665 27.3346 15.5665 27.3346 15.0317 27.0622C14.5613 26.8225 14.1788 26.44 13.9392 25.9696C13.6667 25.4348 13.6667 24.7348 13.6667 23.3346V14.0013" stroke="#D92D20" stroke-width="1.66667" stroke-linecap="round" stroke-linejoin="round"/>
<path d="M58.9668 19.7246C58.9668 21.3327 58.6673 22.6771 58.0684 23.7578C57.4694 24.832 56.6003 25.6426 55.4609 26.1895C54.3216 26.7298 52.9479 27 51.3398 27H47.375V12.7227H51.7695C53.2474 12.7227 54.5234 12.9896 55.5977 13.5234C56.6719 14.0508 57.502 14.8353 58.0879 15.877C58.6738 16.9121 58.9668 18.1947 58.9668 19.7246ZM56.5254 19.793C56.5254 18.6211 56.3398 17.6576 55.9688 16.9023C55.6042 16.1471 55.0638 15.5872 54.3477 15.2227C53.638 14.8516 52.7624 14.666 51.7207 14.666H49.7188V25.0371H51.3789C53.1042 25.0371 54.3932 24.5977 55.2461 23.7188C56.099 22.8398 56.5254 21.5312 56.5254 19.793ZM66.1152 15.9844C67.0788 15.9844 67.9056 16.1829 68.5957 16.5801C69.2858 16.9772 69.8164 17.5404 70.1875 18.2695C70.5586 18.9987 70.7441 19.8711 70.7441 20.8867V22.1172H63.5273C63.5534 23.1654 63.8333 23.9727 64.3672 24.5391C64.9076 25.1055 65.6628 25.3887 66.6328 25.3887C67.3229 25.3887 67.9414 25.3236 68.4883 25.1934C69.0417 25.0566 69.6113 24.8581 70.1973 24.5977V26.4629C69.6569 26.7168 69.1068 26.9023 68.5469 27.0195C67.987 27.1367 67.3164 27.1953 66.5352 27.1953C65.474 27.1953 64.5397 26.9902 63.7324 26.5801C62.9316 26.1634 62.3034 25.5449 61.8477 24.7246C61.3984 23.9043 61.1738 22.8854 61.1738 21.668C61.1738 20.457 61.3789 19.4284 61.7891 18.582C62.1992 17.7357 62.7754 17.0911 63.5176 16.6484C64.2598 16.2057 65.1257 15.9844 66.1152 15.9844ZM66.1152 17.7129C65.3926 17.7129 64.8066 17.9473 64.3574 18.416C63.9147 18.8848 63.6543 19.5716 63.5762 20.4766H68.498C68.4915 19.9362 68.4004 19.4577 68.2246 19.041C68.0553 18.6243 67.7949 18.2988 67.4434 18.0645C67.0983 17.8301 66.6556 17.7129 66.1152 17.7129ZM75.6367 27H73.332V11.8047H75.6367V27ZM83.2246 15.9844C84.1882 15.9844 85.015 16.1829 85.7051 16.5801C86.3952 16.9772 86.9258 17.5404 87.2969 18.2695C87.668 18.9987 87.8535 19.8711 87.8535 20.8867V22.1172H80.6367C80.6628 23.1654 80.9427 23.9727 81.4766 24.5391C82.0169 25.1055 82.7721 25.3887 83.7422 25.3887C84.4323 25.3887 85.0508 25.3236 85.5977 25.1934C86.151 25.0566 86.7207 24.8581 87.3066 24.5977V26.4629C86.7663 26.7168 86.2161 26.9023 85.6562 27.0195C85.0964 27.1367 84.4258 27.1953 83.6445 27.1953C82.5833 27.1953 81.6491 26.9902 80.8418 26.5801C80.041 26.1634 79.4128 25.5449 78.957 24.7246C78.5078 23.9043 78.2832 22.8854 78.2832 21.668C78.2832 20.457 78.4883 19.4284 78.8984 18.582C79.3086 17.7357 79.8848 17.0911 80.627 16.6484C81.3691 16.2057 82.235 15.9844 83.2246 15.9844ZM83.2246 17.7129C82.502 17.7129 81.916 17.9473 81.4668 18.416C81.0241 18.8848 80.7637 19.5716 80.6855 20.4766H85.6074C85.6009 19.9362 85.5098 19.4577 85.334 19.041C85.1647 18.6243 84.9043 18.2988 84.5527 18.0645C84.2077 17.8301 83.765 17.7129 83.2246 17.7129ZM94.4648 25.3398C94.7643 25.3398 95.0605 25.3138 95.3535 25.2617C95.6465 25.2031 95.9134 25.1348 96.1543 25.0566V26.7949C95.9004 26.9056 95.5716 27 95.168 27.0781C94.7643 27.1562 94.3444 27.1953 93.9082 27.1953C93.2962 27.1953 92.7461 27.0944 92.2578 26.8926C91.7695 26.6842 91.3822 26.3294 91.0957 25.8281C90.8092 25.3268 90.666 24.6335 90.666 23.748V17.9375H89.1914V16.9121L90.7734 16.1016L91.5254 13.7871H92.9707V16.1895H96.0664V17.9375H92.9707V23.7188C92.9707 24.2656 93.1074 24.6725 93.3809 24.9395C93.6543 25.2064 94.0156 25.3398 94.4648 25.3398ZM102.658 15.9844C103.622 15.9844 104.449 16.1829 105.139 16.5801C105.829 16.9772 106.359 17.5404 106.73 18.2695C107.102 18.9987 107.287 19.8711 107.287 20.8867V22.1172H100.07C100.096 23.1654 100.376 23.9727 100.91 24.5391C101.451 25.1055 102.206 25.3887 103.176 25.3887C103.866 25.3887 104.484 25.3236 105.031 25.1934C105.585 25.0566 106.154 24.8581 106.74 24.5977V26.4629C106.2 26.7168 105.65 26.9023 105.09 27.0195C104.53 27.1367 103.859 27.1953 103.078 27.1953C102.017 27.1953 101.083 26.9902 100.275 26.5801C99.4746 26.1634 98.8464 25.5449 98.3906 24.7246C97.9414 23.9043 97.7168 22.8854 97.7168 21.668C97.7168 20.457 97.9219 19.4284 98.332 18.582C98.7422 17.7357 99.3184 17.0911 100.061 16.6484C100.803 16.2057 101.669 15.9844 102.658 15.9844ZM102.658 17.7129C101.936 17.7129 101.35 17.9473 100.9 18.416C100.458 18.8848 100.197 19.5716 100.119 20.4766H105.041C105.035 19.9362 104.943 19.4577 104.768 19.041C104.598 18.6243 104.338 18.2988 103.986 18.0645C103.641 17.8301 103.199 17.7129 102.658 17.7129ZM126.896 19.7246C126.896 21.3327 126.597 22.6771 125.998 23.7578C125.399 24.832 124.53 25.6426 123.391 26.1895C122.251 26.7298 120.878 27 119.27 27H115.305V12.7227H119.699C121.177 12.7227 122.453 12.9896 123.527 13.5234C124.602 14.0508 125.432 14.8353 126.018 15.877C126.604 16.9121 126.896 18.1947 126.896 19.7246ZM124.455 19.793C124.455 18.6211 124.27 17.6576 123.898 16.9023C123.534 16.1471 122.993 15.5872 122.277 15.2227C121.568 14.8516 120.692 14.666 119.65 14.666H117.648V25.0371H119.309C121.034 25.0371 122.323 24.5977 123.176 23.7188C124.029 22.8398 124.455 21.5312 124.455 19.793ZM134.045 15.9844C135.008 15.9844 135.835 16.1829 136.525 16.5801C137.215 16.9772 137.746 17.5404 138.117 18.2695C138.488 18.9987 138.674 19.8711 138.674 20.8867V22.1172H131.457C131.483 23.1654 131.763 23.9727 132.297 24.5391C132.837 25.1055 133.592 25.3887 134.562 25.3887C135.253 25.3887 135.871 25.3236 136.418 25.1934C136.971 25.0566 137.541 24.8581 138.127 24.5977V26.4629C137.587 26.7168 137.036 26.9023 136.477 27.0195C135.917 27.1367 135.246 27.1953 134.465 27.1953C133.404 27.1953 132.469 26.9902 131.662 26.5801C130.861 26.1634 130.233 25.5449 129.777 24.7246C129.328 23.9043 129.104 22.8854 129.104 21.668C129.104 20.457 129.309 19.4284 129.719 18.582C130.129 17.7357 130.705 17.0911 131.447 16.6484C132.189 16.2057 133.055 15.9844 134.045 15.9844ZM134.045 17.7129C133.322 17.7129 132.736 17.9473 132.287 18.416C131.844 18.8848 131.584 19.5716 131.506 20.4766H136.428C136.421 19.9362 136.33 19.4577 136.154 19.041C135.985 18.6243 135.725 18.2988 135.373 18.0645C135.028 17.8301 134.585 17.7129 134.045 17.7129ZM146.809 15.9844C148.091 15.9844 149.12 16.4531 149.895 17.3906C150.676 18.3281 151.066 19.7214 151.066 21.5703C151.066 22.7943 150.884 23.8262 150.52 24.666C150.161 25.4993 149.657 26.1309 149.006 26.5605C148.361 26.9837 147.609 27.1953 146.75 27.1953C146.203 27.1953 145.728 27.1237 145.324 26.9805C144.921 26.8372 144.576 26.6517 144.289 26.4238C144.003 26.1895 143.762 25.9355 143.566 25.6621H143.43C143.462 25.9225 143.492 26.2122 143.518 26.5312C143.55 26.8438 143.566 27.1302 143.566 27.3906V31.7949H141.262V16.1895H143.137L143.459 17.6836H143.566C143.768 17.3776 144.012 17.0944 144.299 16.834C144.592 16.5736 144.943 16.3685 145.354 16.2188C145.77 16.0625 146.255 15.9844 146.809 15.9844ZM146.193 17.8594C145.562 17.8594 145.054 17.9863 144.67 18.2402C144.292 18.4876 144.016 18.862 143.84 19.3633C143.671 19.8646 143.579 20.4928 143.566 21.248V21.5703C143.566 22.3711 143.648 23.0514 143.811 23.6113C143.98 24.1647 144.257 24.5879 144.641 24.8809C145.031 25.1673 145.559 25.3105 146.223 25.3105C146.783 25.3105 147.245 25.1576 147.609 24.8516C147.98 24.5456 148.257 24.1094 148.439 23.543C148.622 22.9766 148.713 22.3092 148.713 21.541C148.713 20.3757 148.505 19.4707 148.088 18.8262C147.678 18.1816 147.046 17.8594 146.193 17.8594ZM157.961 15.9844C159.328 15.9844 160.36 16.2871 161.057 16.8926C161.76 17.498 162.111 18.4421 162.111 19.7246V27H160.48L160.041 25.4668H159.963C159.657 25.8574 159.341 26.1797 159.016 26.4336C158.69 26.6875 158.312 26.8763 157.883 27C157.46 27.1302 156.942 27.1953 156.33 27.1953C155.686 27.1953 155.109 27.0781 154.602 26.8438C154.094 26.6029 153.693 26.2383 153.4 25.75C153.107 25.2617 152.961 24.6432 152.961 23.8945C152.961 22.7812 153.374 21.9447 154.201 21.3848C155.035 20.8249 156.291 20.5156 157.971 20.457L159.846 20.3887V19.8223C159.846 19.0736 159.67 18.5397 159.318 18.2207C158.973 17.9017 158.485 17.7422 157.854 17.7422C157.313 17.7422 156.789 17.8203 156.281 17.9766C155.773 18.1328 155.279 18.3249 154.797 18.5527L154.055 16.9316C154.582 16.6517 155.181 16.4238 155.852 16.248C156.529 16.0723 157.232 15.9844 157.961 15.9844ZM159.836 21.834L158.439 21.8828C157.294 21.9219 156.49 22.1172 156.027 22.4688C155.565 22.8203 155.334 23.3021 155.334 23.9141C155.334 24.4479 155.493 24.8385 155.812 25.0859C156.132 25.3268 156.551 25.4473 157.072 25.4473C157.867 25.4473 158.524 25.2227 159.045 24.7734C159.572 24.3177 159.836 23.6504 159.836 22.7715V21.834ZM170.803 15.9844C170.985 15.9844 171.184 15.9941 171.398 16.0137C171.613 16.0332 171.799 16.0592 171.955 16.0918L171.74 18.2402C171.604 18.2012 171.434 18.1719 171.232 18.1523C171.037 18.1328 170.861 18.123 170.705 18.123C170.295 18.123 169.904 18.1914 169.533 18.3281C169.162 18.4583 168.833 18.6602 168.547 18.9336C168.26 19.2005 168.036 19.5358 167.873 19.9395C167.71 20.3431 167.629 20.8118 167.629 21.3457V27H165.324V16.1895H167.121L167.434 18.0938H167.541C167.756 17.7096 168.023 17.3581 168.342 17.0391C168.661 16.7201 169.025 16.4661 169.436 16.2773C169.852 16.082 170.308 15.9844 170.803 15.9844ZM177.98 25.3398C178.28 25.3398 178.576 25.3138 178.869 25.2617C179.162 25.2031 179.429 25.1348 179.67 25.0566V26.7949C179.416 26.9056 179.087 27 178.684 27.0781C178.28 27.1562 177.86 27.1953 177.424 27.1953C176.812 27.1953 176.262 27.0944 175.773 26.8926C175.285 26.6842 174.898 26.3294 174.611 25.8281C174.325 25.3268 174.182 24.6335 174.182 23.748V17.9375H172.707V16.9121L174.289 16.1016L175.041 13.7871H176.486V16.1895H179.582V17.9375H176.486V23.7188C176.486 24.2656 176.623 24.6725 176.896 24.9395C177.17 25.2064 177.531 25.3398 177.98 25.3398ZM194.084 15.9844C195.295 15.9844 196.206 16.2969 196.818 16.9219C197.437 17.5469 197.746 18.5495 197.746 19.9297V27H195.451V20.3398C195.451 19.5195 195.292 18.901 194.973 18.4844C194.654 18.0677 194.169 17.8594 193.518 17.8594C192.606 17.8594 191.949 18.1523 191.545 18.7383C191.148 19.3177 190.949 20.1608 190.949 21.2676V27H188.654V20.3398C188.654 19.793 188.583 19.3372 188.439 18.9727C188.303 18.6016 188.091 18.3249 187.805 18.1426C187.518 17.9538 187.157 17.8594 186.721 17.8594C186.089 17.8594 185.585 18.0026 185.207 18.2891C184.836 18.5755 184.569 18.9987 184.406 19.5586C184.243 20.112 184.162 20.7923 184.162 21.5996V27H181.867V16.1895H183.654L183.977 17.6445H184.104C184.325 17.2669 184.598 16.9577 184.924 16.7168C185.256 16.4694 185.624 16.2871 186.027 16.1699C186.431 16.0462 186.851 15.9844 187.287 15.9844C188.094 15.9844 188.775 16.1276 189.328 16.4141C189.882 16.694 190.295 17.1237 190.568 17.7031H190.744C191.083 17.1172 191.555 16.6842 192.16 16.4043C192.766 16.1243 193.407 15.9844 194.084 15.9844ZM205.256 15.9844C206.219 15.9844 207.046 16.1829 207.736 16.5801C208.426 16.9772 208.957 17.5404 209.328 18.2695C209.699 18.9987 209.885 19.8711 209.885 20.8867V22.1172H202.668C202.694 23.1654 202.974 23.9727 203.508 24.5391C204.048 25.1055 204.803 25.3887 205.773 25.3887C206.464 25.3887 207.082 25.3236 207.629 25.1934C208.182 25.0566 208.752 24.8581 209.338 24.5977V26.4629C208.798 26.7168 208.247 26.9023 207.688 27.0195C207.128 27.1367 206.457 27.1953 205.676 27.1953C204.615 27.1953 203.68 26.9902 202.873 26.5801C202.072 26.1634 201.444 25.5449 200.988 24.7246C200.539 23.9043 200.314 22.8854 200.314 21.668C200.314 20.457 200.52 19.4284 200.93 18.582C201.34 17.7357 201.916 17.0911 202.658 16.6484C203.4 16.2057 204.266 15.9844 205.256 15.9844ZM205.256 17.7129C204.533 17.7129 203.947 17.9473 203.498 18.416C203.055 18.8848 202.795 19.5716 202.717 20.4766H207.639C207.632 19.9362 207.541 19.4577 207.365 19.041C207.196 18.6243 206.936 18.2988 206.584 18.0645C206.239 17.8301 205.796 17.7129 205.256 17.7129ZM218.107 15.9844C219.325 15.9844 220.272 16.3001 220.949 16.9316C221.633 17.5566 221.975 18.5625 221.975 19.9492V27H219.68V20.3789C219.68 19.5391 219.507 18.9108 219.162 18.4941C218.817 18.071 218.283 17.8594 217.561 17.8594C216.512 17.8594 215.783 18.1816 215.373 18.8262C214.969 19.4707 214.768 20.4049 214.768 21.6289V27H212.473V16.1895H214.26L214.582 17.6543H214.709C214.943 17.2767 215.233 16.9674 215.578 16.7266C215.93 16.4792 216.32 16.2936 216.75 16.1699C217.186 16.0462 217.639 15.9844 218.107 15.9844ZM229.211 25.3398C229.51 25.3398 229.807 25.3138 230.1 25.2617C230.393 25.2031 230.66 25.1348 230.9 25.0566V26.7949C230.646 26.9056 230.318 27 229.914 27.0781C229.51 27.1562 229.09 27.1953 228.654 27.1953C228.042 27.1953 227.492 27.0944 227.004 26.8926C226.516 26.6842 226.128 26.3294 225.842 25.8281C225.555 25.3268 225.412 24.6335 225.412 23.748V17.9375H223.938V16.9121L225.52 16.1016L226.271 13.7871H227.717V16.1895H230.812V17.9375H227.717V23.7188C227.717 24.2656 227.854 24.6725 228.127 24.9395C228.4 25.2064 228.762 25.3398 229.211 25.3398Z" fill="#344054"/>
</svg>
