<svg width="60" height="60" viewBox="0 0 60 60" fill="none" xmlns="http://www.w3.org/2000/svg">
<rect width="60" height="60" rx="12" fill="#B6DEEB"/>
<path d="M33 15.4043V21.6001C33 22.4402 33 22.8602 33.1635 23.1811C33.3073 23.4633 33.5368 23.6928 33.819 23.8366C34.1399 24.0001 34.5599 24.0001 35.4 24.0001H41.5958M24 34.5V39M36 31.5V39M30 27.75V39M42 26.9823V37.8C42 40.3202 42 41.5804 41.5095 42.543C41.0781 43.3897 40.3897 44.0781 39.543 44.5095C38.5804 45 37.3202 45 34.8 45H25.2C22.6798 45 21.4196 45 20.457 44.5095C19.6103 44.0781 18.9219 43.3897 18.4905 42.543C18 41.5804 18 40.3202 18 37.8V22.2C18 19.6798 18 18.4196 18.4905 17.457C18.9219 16.6103 19.6103 15.9219 20.457 15.4905C21.4196 15 22.6798 15 25.2 15H30.0177C31.1183 15 31.6686 15 32.1865 15.1243C32.6457 15.2346 33.0847 15.4164 33.4873 15.6631C33.9414 15.9414 34.3305 16.3305 35.1088 17.1088L39.8912 21.8912C40.6695 22.6695 41.0586 23.0586 41.3369 23.5127C41.5836 23.9153 41.7654 24.3543 41.8757 24.8135C42 25.3314 42 25.8817 42 26.9823Z" stroke="#284B62" stroke-width="3" stroke-linecap="round" stroke-linejoin="round"/>
</svg>
