<svg width="25" height="25" viewBox="0 0 25 25" fill="none" xmlns="http://www.w3.org/2000/svg">
<path d="M14 3H11C7.22876 3 5.34315 3 4.17157 4.17157C3 5.34315 3 7.22876 3 11V14C3 17.7712 3 19.6569 4.17157 20.8284C5.34315 22 7.22876 22 11 22H14C17.7712 22 19.6569 22 20.8284 20.8284C22 19.6569 22 17.7712 22 14V11C22 7.22876 22 5.34315 20.8284 4.17157C19.6569 3 17.7712 3 14 3Z" stroke="black" stroke-width="1.25" stroke-linecap="round"/>
<path d="M7.2915 12.5001H17.7082M12.4998 7.29175V17.7084" stroke="black" stroke-width="1.25" stroke-linecap="round"/>
</svg>
