<svg width="25" height="24" viewBox="0 0 25 24" fill="none" xmlns="http://www.w3.org/2000/svg">
<path d="M17.8953 17.5V15M17.8953 17.5V20M17.8953 17.5H15.3953M17.8953 17.5H20.3953M14.8953 13.6241C13.9766 13.2227 12.962 13 11.8953 13C8.43753 13 5.52624 15.34 4.6587 18.5229C4.36823 19.5886 5.2908 20.5 6.39537 20.5H12.8953M15.3953 6.5C15.3953 8.433 13.8283 10 11.8953 10C9.96233 10 8.39537 8.433 8.39537 6.5C8.39537 4.567 9.96233 3 11.8953 3C13.8283 3 15.3953 4.567 15.3953 6.5Z" stroke="white" stroke-width="1.25" stroke-linecap="round"/>
</svg>
