<svg width="20" height="20" viewBox="0 0 20 20" fill="none" xmlns="http://www.w3.org/2000/svg">
<g clip-path="url(#clip0_357_158)">
<path d="M10 1.66665C11.1054 1.67028 12.1992 1.8931 13.2179 2.32222C14.2366 2.75135 15.1602 3.37825 15.935 4.16665H13.3333C13.1123 4.16665 12.9004 4.25445 12.7441 4.41073C12.5878 4.56701 12.5 4.77897 12.5 4.99999C12.5 5.221 12.5878 5.43296 12.7441 5.58924C12.9004 5.74552 13.1123 5.83332 13.3333 5.83332H16.7858C17.1962 5.8331 17.5897 5.66999 17.8798 5.37982C18.17 5.08966 18.3331 4.69617 18.3333 4.28582V0.833319C18.3333 0.612305 18.2455 0.400344 18.0893 0.244064C17.933 0.0877832 17.721 -1.41704e-05 17.5 -1.41704e-05C17.279 -1.41704e-05 17.067 0.0877832 16.9107 0.244064C16.7545 0.400344 16.6667 0.612305 16.6667 0.833319V2.56499C15.2893 1.32453 13.5938 0.491994 11.7701 0.16061C9.94635 -0.170774 8.06636 0.0120791 6.34066 0.688692C4.61496 1.36531 3.11169 2.50896 1.99918 3.99159C0.886679 5.47422 0.208874 7.23727 0.0416727 9.08332C0.0309088 9.19937 0.0444358 9.31639 0.0813918 9.42692C0.118348 9.53745 0.177922 9.63907 0.25632 9.72531C0.334717 9.81154 0.430218 9.88051 0.536738 9.9278C0.643258 9.97509 0.75846 9.99967 0.875006 9.99999C1.07883 10.0026 1.27628 9.92902 1.42872 9.79369C1.58116 9.65836 1.6776 9.47101 1.69917 9.26832C1.88468 7.19394 2.83915 5.2639 4.37507 3.85735C5.911 2.4508 7.91735 1.6694 10 1.66665Z" fill="white" fill-opacity="0.75"/>
<path d="M19.1262 10.0001C18.9223 9.99747 18.7249 10.071 18.5724 10.2064C18.42 10.3417 18.3236 10.529 18.302 10.7317C18.1642 12.3178 17.5744 13.831 16.6025 15.0919C15.6306 16.3528 14.3175 17.3085 12.8188 17.8455C11.3201 18.3826 9.69882 18.4785 8.14728 18.1218C6.59575 17.7652 5.17907 16.971 4.06533 15.8334H6.66699C6.88801 15.8334 7.09997 15.7456 7.25625 15.5893C7.41253 15.433 7.50033 15.2211 7.50033 15.0001C7.50033 14.7791 7.41253 14.5671 7.25625 14.4108C7.09997 14.2545 6.88801 14.1667 6.66699 14.1667H3.21449C3.01124 14.1666 2.80996 14.2066 2.62216 14.2843C2.43436 14.362 2.26372 14.476 2.12 14.6197C1.97628 14.7635 1.8623 14.9341 1.78457 15.1219C1.70684 15.3097 1.66688 15.511 1.66699 15.7142V19.1667C1.66699 19.3877 1.75479 19.5997 1.91107 19.756C2.06735 19.9123 2.27931 20.0001 2.50033 20.0001C2.72134 20.0001 2.9333 19.9123 3.08958 19.756C3.24586 19.5997 3.33366 19.3877 3.33366 19.1667V17.4351C4.71102 18.6755 6.4065 19.5081 8.23024 19.8394C10.054 20.1708 11.934 19.988 13.6597 19.3114C15.3854 18.6347 16.8886 17.4911 18.0011 16.0085C19.1137 14.5258 19.7915 12.7628 19.9587 10.9167C19.9694 10.8007 19.9559 10.6837 19.9189 10.5731C19.882 10.4626 19.8224 10.361 19.744 10.2747C19.6656 10.1885 19.5701 10.1195 19.4636 10.0723C19.3571 10.025 19.2427 10.0004 19.1262 10.0001Z" fill="white" fill-opacity="0.75"/>
</g>
<defs>
<clipPath id="clip0_357_158">
<rect width="20" height="20" fill="white"/>
</clipPath>
</defs>
</svg>
