<svg xmlns="http://www.w3.org/2000/svg" xmlns:xlink="http://www.w3.org/1999/xlink" viewBox="0,0,256,256" width="24px" height="24px" fill-rule="nonzero"><g fill="#7e7979" fill-rule="nonzero" stroke="none" stroke-width="1" stroke-linecap="butt" stroke-linejoin="miter" stroke-miterlimit="10" stroke-dasharray="" stroke-dashoffset="0" font-family="none" font-weight="none" font-size="none" text-anchor="none" style="mix-blend-mode: normal"><g transform="scale(10.66667,10.66667)"><path d="M10,2c-4.41236,0 -8,3.58764 -8,8c0,4.41236 3.58764,8 8,8c2.02665,0 3.87421,-0.76179 5.28516,-2.00781l6.36133,6.36133c0.12541,0.13061 0.31163,0.18321 0.48684,0.13753c0.17521,-0.04568 0.31204,-0.18251 0.35772,-0.35772c0.04568,-0.17521 -0.00693,-0.36143 -0.13753,-0.48684l-6.36133,-6.36133c1.24603,-1.41095 2.00781,-3.25851 2.00781,-5.28516c0,-4.41236 -3.58764,-8 -8,-8zM10,3c3.87192,0 7,3.12808 7,7c0,3.87192 -3.12808,7 -7,7c-3.87192,0 -7,-3.12808 -7,-7c0,-3.87192 3.12808,-7 7,-7z"></path></g></g></svg>